<svg width="640" height="640" viewBox="0 0 640 640" fill="none" xmlns="http://www.w3.org/2000/svg">
<g clip-path="url(#clip0_1159_217)">
<rect width="640" height="640" fill="#101010"/>
<path d="M-40.1131 454.121C-51.8406 465.848 -51.8407 484.862 -40.1132 496.59V496.59L2.35583 454.121C14.0833 442.393 14.0833 423.379 2.35585 411.652V411.652L-40.1131 454.121Z" fill="#131313"/>
<path d="M32.0838 483.85C43.8113 472.122 43.8114 453.108 32.0839 441.381V441.381L-31.6197 505.084L-10.3851 526.319L32.0838 483.85Z" fill="#131313"/>
<path d="M40.578 492.343C52.3055 480.615 71.3195 480.615 83.047 492.343V492.343L19.3435 556.046L-1.89101 534.812L40.578 492.343Z" fill="#131313"/>
<path d="M49.0724 543.306C37.3449 555.033 37.3449 574.047 49.0724 585.775V585.775L91.5414 543.306C103.269 531.578 103.269 512.564 91.5414 500.837V500.837L49.0724 543.306Z" fill="#131313"/>
<path d="M121.269 573.034C132.997 561.307 132.997 542.293 121.269 530.565V530.565L57.5659 594.269L78.8004 615.503L121.269 573.034Z" fill="#131313"/>
<path d="M129.764 581.529C141.491 569.802 160.505 569.802 172.233 581.529V581.529L108.529 645.233L87.2945 623.998L129.764 581.529Z" fill="#131313"/>
<path d="M138.258 632.492C126.53 644.22 126.53 663.234 138.258 674.961V674.961L180.727 632.492C192.454 620.765 192.454 601.751 180.727 590.023V590.023L138.258 632.492Z" fill="#131313"/>
<path d="M210.455 662.221C222.182 650.493 222.182 631.479 210.455 619.752V619.752L146.751 683.455L167.986 704.69L210.455 662.221Z" fill="#131313"/>
<path d="M-19.4708 216.295C-7.74335 204.568 -7.74333 185.554 -19.4708 173.826V173.826L-83.1743 237.53L-61.9398 258.764L-19.4708 216.295Z" fill="#131313"/>
<path d="M-10.9767 224.789C0.750789 213.062 19.7648 213.062 31.4923 224.789V224.789L-32.2112 288.493L-53.4457 267.258L-10.9767 224.789Z" fill="#131313"/>
<path d="M-2.48228 275.752C-14.2098 287.479 -14.2098 306.493 -2.48229 318.221V318.221L39.9867 275.752C51.7142 264.024 51.7142 245.01 39.9867 233.283V233.283L-2.48228 275.752Z" fill="#131313"/>
<path d="M69.7147 305.481C81.4422 293.753 81.4422 274.739 69.7147 263.012V263.012L6.01121 326.715L27.2457 347.95L69.7147 305.481Z" fill="#131313"/>
<path d="M78.2088 313.974C89.9363 302.246 108.95 302.246 120.678 313.974V313.974L56.9744 377.677L35.7399 356.443L78.2088 313.974Z" fill="#131313"/>
<path d="M86.7033 364.936C74.9758 376.664 74.9758 395.678 86.7033 407.405V407.405L129.172 364.936C140.9 353.209 140.9 334.195 129.172 322.467V322.467L86.7033 364.936Z" fill="#131313"/>
<path d="M158.9 394.665C170.628 382.938 170.628 363.924 158.9 352.196V352.196L95.1968 415.9L116.431 437.134L158.9 394.665Z" fill="#131313"/>
<path d="M167.392 403.158C179.12 391.431 198.134 391.431 209.861 403.158V403.158L146.158 466.862L124.923 445.627L167.392 403.158Z" fill="#131313"/>
<path d="M175.887 454.121C164.159 465.848 164.159 484.862 175.887 496.59V496.59L218.356 454.121C230.083 442.393 230.083 423.379 218.356 411.652V411.652L175.887 454.121Z" fill="#131313"/>
<path d="M248.084 483.85C259.811 472.122 259.811 453.108 248.084 441.381V441.381L184.38 505.084L205.615 526.319L248.084 483.85Z" fill="#131313"/>
<path d="M256.578 492.343C268.305 480.615 287.32 480.615 299.047 492.343V492.343L235.343 556.046L214.109 534.812L256.578 492.343Z" fill="#131313"/>
<path d="M265.072 543.306C253.345 555.033 253.345 574.047 265.072 585.775V585.775L307.541 543.306C319.269 531.578 319.269 512.564 307.541 500.837V500.837L265.072 543.306Z" fill="#131313"/>
<path d="M337.269 573.034C348.997 561.307 348.997 542.293 337.269 530.565V530.565L273.566 594.269L294.8 615.503L337.269 573.034Z" fill="#131313"/>
<path d="M345.764 581.529C357.491 569.802 376.505 569.802 388.233 581.529V581.529L324.529 645.233L303.295 623.998L345.764 581.529Z" fill="#131313"/>
<path d="M354.258 632.492C342.53 644.22 342.53 663.234 354.258 674.961V674.961L396.727 632.492C408.454 620.765 408.454 601.751 396.727 590.023V590.023L354.258 632.492Z" fill="#131313"/>
<path d="M426.455 662.221C438.182 650.493 438.182 631.479 426.455 619.752V619.752L362.751 683.455L383.986 704.69L426.455 662.221Z" fill="#131313"/>
<path d="M-54.037 8.19712C-65.7645 19.9246 -65.7645 38.9386 -54.037 50.6661V50.6661L-11.568 8.19716C0.159501 -3.53034 0.159519 -22.5444 -11.568 -34.2719V-34.2719L-54.037 8.19712Z" fill="#131313"/>
<path d="M18.16 37.9259C29.8875 26.1984 29.8875 7.1844 18.16 -4.5431V-4.5431L-45.5435 59.1604L-24.309 80.3949L18.16 37.9259Z" fill="#131313"/>
<path d="M26.6542 46.4191C38.3816 34.6916 57.3957 34.6916 69.1232 46.4191V46.4191L5.41967 110.123L-15.8148 88.8881L26.6542 46.4191Z" fill="#131313"/>
<path d="M35.1486 97.3817C23.4211 109.109 23.4211 128.123 35.1486 139.851V139.851L77.6176 97.3817C89.345 85.6542 89.3451 66.6402 77.6176 54.9127V54.9127L35.1486 97.3817Z" fill="#131313"/>
<path d="M107.346 127.11C119.073 115.383 119.073 96.369 107.346 84.6415V84.6415L43.6421 148.345L64.8766 169.579L107.346 127.11Z" fill="#131313"/>
<path d="M115.838 135.604C127.565 123.876 146.579 123.876 158.307 135.604V135.604L94.6033 199.307L73.3688 178.073L115.838 135.604Z" fill="#131313"/>
<path d="M124.332 186.566C112.605 198.294 112.605 217.308 124.332 229.035V229.035L166.801 186.566C178.529 174.839 178.529 155.825 166.801 144.097V144.097L124.332 186.566Z" fill="#131313"/>
<path d="M196.529 216.295C208.257 204.568 208.257 185.554 196.529 173.826V173.826L132.826 237.53L154.06 258.764L196.529 216.295Z" fill="#131313"/>
<path d="M205.023 224.789C216.751 213.062 235.765 213.062 247.492 224.789V224.789L183.789 288.493L162.554 267.258L205.023 224.789Z" fill="#131313"/>
<path d="M213.518 275.752C201.79 287.479 201.79 306.493 213.518 318.221V318.221L255.987 275.752C267.714 264.024 267.714 245.01 255.987 233.283V233.283L213.518 275.752Z" fill="#131313"/>
<path d="M285.715 305.481C297.442 293.753 297.442 274.739 285.715 263.012V263.012L222.011 326.715L243.246 347.95L285.715 305.481Z" fill="#131313"/>
<path d="M294.209 313.974C305.936 302.246 324.95 302.246 336.678 313.974V313.974L272.974 377.677L251.74 356.443L294.209 313.974Z" fill="#131313"/>
<path d="M302.703 364.936C290.976 376.664 290.976 395.678 302.703 407.405V407.405L345.172 364.936C356.9 353.209 356.9 334.195 345.172 322.467V322.467L302.703 364.936Z" fill="#131313"/>
<path d="M374.9 394.665C386.628 382.938 386.628 363.924 374.9 352.196V352.196L311.197 415.9L332.431 437.134L374.9 394.665Z" fill="#131313"/>
<path d="M383.392 403.158C395.12 391.431 414.134 391.431 425.861 403.158V403.158L362.158 466.862L340.923 445.627L383.392 403.158Z" fill="#131313"/>
<path d="M391.887 454.121C380.159 465.848 380.159 484.862 391.887 496.59V496.59L434.356 454.121C446.083 442.393 446.083 423.379 434.356 411.652V411.652L391.887 454.121Z" fill="#131313"/>
<path d="M464.084 483.85C475.811 472.122 475.811 453.108 464.084 441.381V441.381L400.38 505.084L421.615 526.319L464.084 483.85Z" fill="#131313"/>
<path d="M472.578 492.344C484.305 480.616 503.32 480.616 515.047 492.344V492.344L451.343 556.047L430.109 534.813L472.578 492.344Z" fill="#131313"/>
<path d="M481.072 543.306C469.345 555.034 469.345 574.048 481.072 585.776V585.776L523.541 543.307C535.269 531.579 535.269 512.565 523.541 500.838V500.838L481.072 543.306Z" fill="#131313"/>
<path d="M553.269 573.035C564.997 561.308 564.997 542.294 553.269 530.566V530.566L489.566 594.27L510.8 615.504L553.269 573.035Z" fill="#131313"/>
<path d="M561.764 581.529C573.491 569.802 592.505 569.802 604.233 581.529V581.529L540.529 645.233L519.295 623.998L561.764 581.529Z" fill="#131313"/>
<path d="M570.258 632.492C558.53 644.22 558.53 663.234 570.258 674.961V674.961L612.727 632.492C624.454 620.765 624.454 601.751 612.727 590.023V590.023L570.258 632.492Z" fill="#131313"/>
<path d="M642.455 662.221C654.182 650.493 654.182 631.479 642.455 619.752V619.752L578.751 683.455L599.986 704.69L642.455 662.221Z" fill="#131313"/>
<path d="M153.469 -42.7655C165.196 -54.493 184.21 -54.493 195.938 -42.7655V-42.7655L132.234 20.938L111 -0.296493L153.469 -42.7655Z" fill="#131313"/>
<path d="M161.963 8.19712C150.236 19.9246 150.236 38.9386 161.963 50.6661V50.6661L204.432 8.19716C216.16 -3.53034 216.16 -22.5444 204.432 -34.2719V-34.2719L161.963 8.19712Z" fill="#131313"/>
<path d="M234.16 37.9259C245.888 26.1984 245.888 7.1844 234.16 -4.5431V-4.5431L170.457 59.1604L191.691 80.3949L234.16 37.9259Z" fill="#131313"/>
<path d="M242.654 46.4191C254.382 34.6916 273.396 34.6916 285.123 46.4191V46.4191L221.42 110.123L200.185 88.8881L242.654 46.4191Z" fill="#131313"/>
<path d="M251.149 97.3817C239.421 109.109 239.421 128.123 251.149 139.851V139.851L293.618 97.3817C305.345 85.6542 305.345 66.6402 293.618 54.9127V54.9127L251.149 97.3817Z" fill="#131313"/>
<path d="M323.346 127.11C335.073 115.383 335.073 96.369 323.346 84.6415V84.6415L259.642 148.345L280.877 169.579L323.346 127.11Z" fill="#131313"/>
<path d="M331.838 135.604C343.565 123.876 362.579 123.876 374.307 135.604V135.604L310.603 199.307L289.369 178.073L331.838 135.604Z" fill="#131313"/>
<path d="M340.332 186.566C328.605 198.294 328.605 217.308 340.332 229.035V229.035L382.801 186.566C394.529 174.839 394.529 155.825 382.801 144.097V144.097L340.332 186.566Z" fill="#131313"/>
<path d="M412.529 216.295C424.257 204.568 424.257 185.554 412.529 173.826V173.826L348.826 237.53L370.06 258.764L412.529 216.295Z" fill="#131313"/>
<path d="M421.023 224.789C432.751 213.062 451.765 213.062 463.492 224.789V224.789L399.789 288.493L378.554 267.258L421.023 224.789Z" fill="#131313"/>
<path d="M429.518 275.752C417.79 287.479 417.79 306.493 429.518 318.221V318.221L471.987 275.752C483.714 264.024 483.714 245.01 471.987 233.283V233.283L429.518 275.752Z" fill="#131313"/>
<path d="M501.715 305.481C513.442 293.753 513.442 274.739 501.715 263.012V263.012L438.011 326.715L459.246 347.95L501.715 305.481Z" fill="#131313"/>
<path d="M510.209 313.974C521.936 302.246 540.95 302.246 552.678 313.974V313.974L488.974 377.677L467.74 356.443L510.209 313.974Z" fill="#131313"/>
<path d="M518.703 364.936C506.976 376.664 506.976 395.678 518.703 407.405V407.405L561.172 364.936C572.9 353.209 572.9 334.195 561.172 322.467V322.467L518.703 364.936Z" fill="#131313"/>
<path d="M590.9 394.665C602.628 382.938 602.628 363.924 590.9 352.196V352.196L527.197 415.9L548.431 437.134L590.9 394.665Z" fill="#131313"/>
<path d="M599.392 403.158C611.12 391.431 630.134 391.431 641.861 403.158V403.158L578.158 466.862L556.923 445.627L599.392 403.158Z" fill="#131313"/>
<path d="M607.887 454.121C596.159 465.848 596.159 484.862 607.887 496.59V496.59L650.356 454.121C662.083 442.393 662.083 423.379 650.356 411.652V411.652L607.887 454.121Z" fill="#131313"/>
<path d="M680.084 483.85C691.811 472.122 691.811 453.108 680.084 441.381V441.381L616.38 505.084L637.615 526.319L680.084 483.85Z" fill="#131313"/>
<path d="M369.469 -42.7655C381.196 -54.493 400.21 -54.493 411.938 -42.7655V-42.7655L348.234 20.938L327 -0.296493L369.469 -42.7655Z" fill="#131313"/>
<path d="M377.963 8.19712C366.236 19.9246 366.236 38.9386 377.963 50.6661V50.6661L420.432 8.19716C432.16 -3.53034 432.16 -22.5444 420.432 -34.2719V-34.2719L377.963 8.19712Z" fill="#131313"/>
<path d="M450.16 37.9259C461.888 26.1984 461.888 7.1844 450.16 -4.5431V-4.5431L386.457 59.1604L407.691 80.3949L450.16 37.9259Z" fill="#131313"/>
<path d="M458.654 46.4191C470.382 34.6916 489.396 34.6916 501.123 46.4191V46.4191L437.42 110.123L416.185 88.8881L458.654 46.4191Z" fill="#131313"/>
<path d="M467.149 97.3817C455.421 109.109 455.421 128.123 467.149 139.851V139.851L509.618 97.3817C521.345 85.6542 521.345 66.6402 509.618 54.9127V54.9127L467.149 97.3817Z" fill="#131313"/>
<path d="M539.346 127.11C551.073 115.383 551.073 96.369 539.346 84.6415V84.6415L475.642 148.345L496.877 169.579L539.346 127.11Z" fill="#131313"/>
<path d="M547.838 135.604C559.565 123.876 578.579 123.876 590.307 135.604V135.604L526.603 199.307L505.369 178.073L547.838 135.604Z" fill="#131313"/>
<path d="M556.332 186.566C544.605 198.294 544.605 217.308 556.332 229.035V229.035L598.801 186.566C610.529 174.839 610.529 155.825 598.801 144.097V144.097L556.332 186.566Z" fill="#131313"/>
<path d="M628.529 216.295C640.257 204.568 640.257 185.554 628.529 173.826V173.826L564.826 237.53L586.06 258.764L628.529 216.295Z" fill="#131313"/>
<path d="M637.023 224.789C648.751 213.062 667.765 213.062 679.492 224.789V224.789L615.789 288.493L594.554 267.258L637.023 224.789Z" fill="#131313"/>
<path d="M645.518 275.752C633.79 287.479 633.79 306.493 645.518 318.221V318.221L687.987 275.752C699.714 264.024 699.714 245.01 687.987 233.283V233.283L645.518 275.752Z" fill="#131313"/>
<path d="M585.469 -42.7655C597.196 -54.493 616.21 -54.493 627.938 -42.7655V-42.7655L564.234 20.938L543 -0.296493L585.469 -42.7655Z" fill="#131313"/>
<path d="M593.963 8.19712C582.236 19.9246 582.236 38.9386 593.963 50.6661V50.6661L636.432 8.19716C648.16 -3.53034 648.16 -22.5444 636.432 -34.2719V-34.2719L593.963 8.19712Z" fill="#131313"/>
<path d="M666.16 37.9259C677.888 26.1984 677.888 7.1844 666.16 -4.5431V-4.5431L602.457 59.1604L623.691 80.3949L666.16 37.9259Z" fill="#131313"/>
<path d="M674.654 46.4191C686.382 34.6916 705.396 34.6916 717.123 46.4191V46.4191L653.42 110.123L632.185 88.8881L674.654 46.4191Z" fill="#131313"/>
<path d="M244 300C244 277.909 261.909 260 284 260V260V380H244V300Z" fill="#D9D9D9"/>
<path d="M300 340C300 362.091 317.909 380 340 380V380V300C340 277.909 322.091 260 300 260V260V340Z" fill="#D9D9D9"/>
<path d="M396 300C396 277.909 378.091 260 356 260V260V380H396V300Z" fill="#D9D9D9"/>
</g>
<defs>
<clipPath id="clip0_1159_217">
<rect width="640" height="640" fill="white"/>
</clipPath>
</defs>
</svg>
