<svg width="640" height="640" viewBox="0 0 640 640" fill="none" xmlns="http://www.w3.org/2000/svg">
<g clip-path="url(#clip0_1172_2)">
<rect width="640" height="640" fill="#101010"/>
<path d="M0 0H640V640H0V0Z" fill="#101010"/>
<path d="M244.5 418C244.5 396.352 261.915 378.771 283.5 378.503V497.5H244.5V418Z" stroke="white"/>
<path d="M300.5 458C300.5 479.648 317.915 497.229 339.5 497.497V418C339.5 396.352 322.085 378.771 300.5 378.503V458Z" stroke="white"/>
<path d="M395.5 418C395.5 396.352 378.085 378.771 356.5 378.503V497.5H395.5V418Z" stroke="white"/>
<mask id="path-5-inside-1_1172_2" fill="white">
<path d="M284 378C278.747 378 273.546 379.035 268.693 381.045C263.84 383.055 259.43 386.001 255.716 389.716C252.001 393.43 249.055 397.84 247.045 402.693C245.035 407.546 244 412.747 244 418L284 418V378Z"/>
</mask>
<path d="M284 378C278.747 378 273.546 379.035 268.693 381.045C263.84 383.055 259.43 386.001 255.716 389.716C252.001 393.43 249.055 397.84 247.045 402.693C245.035 407.546 244 412.747 244 418L284 418V378Z" stroke="white" stroke-width="2" mask="url(#path-5-inside-1_1172_2)"/>
<mask id="path-6-inside-2_1172_2" fill="white">
<path d="M356 378C361.253 378 366.454 379.035 371.307 381.045C376.16 383.055 380.57 386.001 384.284 389.716C387.999 393.43 390.945 397.84 392.955 402.693C394.965 407.546 396 412.747 396 418L356 418V378Z"/>
</mask>
<path d="M356 378C361.253 378 366.454 379.035 371.307 381.045C376.16 383.055 380.57 386.001 384.284 389.716C387.999 393.43 390.945 397.84 392.955 402.693C394.965 407.546 396 412.747 396 418L356 418V378Z" stroke="white" stroke-width="2" mask="url(#path-6-inside-2_1172_2)"/>
<mask id="path-7-inside-3_1172_2" fill="white">
<path d="M340 498C334.747 498 329.546 496.965 324.693 494.955C319.84 492.945 315.43 489.999 311.716 486.284C308.001 482.57 305.055 478.16 303.045 473.307C301.035 468.454 300 463.253 300 458L340 458V498Z"/>
</mask>
<path d="M340 498C334.747 498 329.546 496.965 324.693 494.955C319.84 492.945 315.43 489.999 311.716 486.284C308.001 482.57 305.055 478.16 303.045 473.307C301.035 468.454 300 463.253 300 458L340 458V498Z" stroke="white" stroke-width="2" mask="url(#path-7-inside-3_1172_2)"/>
<mask id="path-8-inside-4_1172_2" fill="white">
<path d="M300 378C305.253 378 310.454 379.035 315.307 381.045C320.16 383.055 324.57 386.001 328.284 389.716C331.999 393.43 334.945 397.84 336.955 402.693C338.965 407.546 340 412.747 340 418L300 418V378Z"/>
</mask>
<path d="M300 378C305.253 378 310.454 379.035 315.307 381.045C320.16 383.055 324.57 386.001 328.284 389.716C331.999 393.43 334.945 397.84 336.955 402.693C338.965 407.546 340 412.747 340 418L300 418V378Z" stroke="white" stroke-width="2" mask="url(#path-8-inside-4_1172_2)"/>
<rect x="244.5" y="417.5" width="39" height="80" stroke="white"/>
<rect x="300.5" y="417.5" width="39" height="41" stroke="white"/>
<rect x="356.5" y="417.5" width="39" height="80" stroke="white"/>
<path d="M149.5 206C149.5 184.352 166.915 166.771 188.5 166.503V285.5H149.5V206Z" stroke="white"/>
<mask id="path-13-inside-5_1172_2" fill="white">
<path d="M189 166C183.747 166 178.546 167.035 173.693 169.045C168.84 171.055 164.43 174.001 160.716 177.716C157.001 181.43 154.055 185.84 152.045 190.693C150.035 195.546 149 200.747 149 206L189 206V166Z"/>
</mask>
<path d="M189 166C183.747 166 178.546 167.035 173.693 169.045C168.84 171.055 164.43 174.001 160.716 177.716C157.001 181.43 154.055 185.84 152.045 190.693C150.035 195.546 149 200.747 149 206L189 206V166Z" stroke="white" stroke-width="2" mask="url(#path-13-inside-5_1172_2)"/>
<circle cx="189" cy="206" r="39.5" stroke="white"/>
<rect x="149.5" y="166.5" width="39" height="119" stroke="white"/>
<path d="M300.5 246C300.5 267.648 317.915 285.229 339.5 285.497V206C339.5 184.352 322.085 166.771 300.5 166.503V246Z" stroke="white"/>
<mask id="path-17-inside-6_1172_2" fill="white">
<path d="M340 286C334.747 286 329.546 284.965 324.693 282.955C319.84 280.945 315.43 277.999 311.716 274.284C308.001 270.57 305.055 266.16 303.045 261.307C301.035 256.454 300 251.253 300 246L340 246V286Z"/>
</mask>
<path d="M340 286C334.747 286 329.546 284.965 324.693 282.955C319.84 280.945 315.43 277.999 311.716 274.284C308.001 270.57 305.055 266.16 303.045 261.307C301.035 256.454 300 251.253 300 246L340 246V286Z" stroke="white" stroke-width="2" mask="url(#path-17-inside-6_1172_2)"/>
<circle cx="40" cy="40" r="39.5" transform="matrix(1 0 0 -1 300 286)" stroke="white"/>
<mask id="path-19-inside-7_1172_2" fill="white">
<path d="M300 166C305.253 166 310.454 167.035 315.307 169.045C320.16 171.055 324.57 174.001 328.284 177.716C331.999 181.43 334.945 185.84 336.955 190.693C338.965 195.546 340 200.747 340 206L300 206V166Z"/>
</mask>
<path d="M300 166C305.253 166 310.454 167.035 315.307 169.045C320.16 171.055 324.57 174.001 328.284 177.716C331.999 181.43 334.945 185.84 336.955 190.693C338.965 195.546 340 200.747 340 206L300 206V166Z" stroke="white" stroke-width="2" mask="url(#path-19-inside-7_1172_2)"/>
<circle cx="40" cy="40" r="39.5" transform="matrix(-1 0 0 1 340 166)" stroke="white"/>
<rect x="300.5" y="166.5" width="39" height="80" stroke="white"/>
<path d="M490.5 206C490.5 184.352 473.085 166.771 451.5 166.503V285.5H490.5V206Z" stroke="white"/>
<mask id="path-23-inside-8_1172_2" fill="white">
<path d="M451 166C456.253 166 461.454 167.035 466.307 169.045C471.16 171.055 475.57 174.001 479.284 177.716C482.999 181.43 485.945 185.84 487.955 190.693C489.965 195.546 491 200.747 491 206L451 206V166Z"/>
</mask>
<path d="M451 166C456.253 166 461.454 167.035 466.307 169.045C471.16 171.055 475.57 174.001 479.284 177.716C482.999 181.43 485.945 185.84 487.955 190.693C489.965 195.546 491 200.747 491 206L451 206V166Z" stroke="white" stroke-width="2" mask="url(#path-23-inside-8_1172_2)"/>
<circle cx="40" cy="40" r="39.5" transform="matrix(-1 0 0 1 491 166)" stroke="white"/>
<rect x="451.5" y="166.5" width="39" height="119" stroke="white"/>
<path d="M149.996 154L150.44 151.6H149.42V150.82H150.584L151.016 148.42H149.84V147.64H151.16L151.604 145.24H152.444L152 147.64H153.92L154.364 145.24H155.204L154.76 147.64H155.78V148.42H154.616L154.184 150.82H155.36V151.6H154.04L153.596 154H152.756L153.2 151.6H151.28L150.836 154H149.996ZM151.424 150.82H153.344L153.776 148.42H151.856L151.424 150.82ZM157.275 154V153.016H159.651V146.14L157.275 147.916V146.716L159.255 145.24H160.731V153.016H162.675V154H157.275Z" fill="white"/>
<path d="M314.301 154L314.745 151.6H313.725V150.82H314.889L315.321 148.42H314.145V147.64H315.465L315.909 145.24H316.749L316.305 147.64H318.225L318.669 145.24H319.509L319.065 147.64H320.085V148.42H318.921L318.489 150.82H319.665V151.6H318.345L317.901 154H317.061L317.505 151.6H315.585L315.141 154H314.301ZM315.729 150.82H317.649L318.081 148.42H316.161L315.729 150.82ZM321.604 154V152.896L324.28 150.052C324.736 149.564 325.068 149.132 325.276 148.756C325.484 148.372 325.588 148.004 325.588 147.652C325.588 147.164 325.452 146.78 325.18 146.5C324.916 146.22 324.552 146.08 324.088 146.08C323.576 146.08 323.172 146.224 322.876 146.512C322.588 146.8 322.444 147.196 322.444 147.7H321.364C321.38 147.172 321.5 146.716 321.724 146.332C321.956 145.94 322.272 145.64 322.672 145.432C323.08 145.224 323.552 145.12 324.088 145.12C324.616 145.12 325.072 145.224 325.456 145.432C325.848 145.632 326.148 145.92 326.356 146.296C326.564 146.672 326.668 147.12 326.668 147.64C326.668 148.136 326.536 148.628 326.272 149.116C326.008 149.604 325.576 150.16 324.976 150.784L322.816 153.016H326.812V154H321.604Z" fill="white"/>
<path d="M477.605 154L478.049 151.6H477.029V150.82H478.193L478.625 148.42H477.449V147.64H478.769L479.213 145.24H480.053L479.609 147.64H481.529L481.973 145.24H482.813L482.369 147.64H483.389V148.42H482.225L481.793 150.82H482.969V151.6H481.649L481.205 154H480.365L480.809 151.6H478.889L478.445 154H477.605ZM479.033 150.82H480.953L481.385 148.42H479.465L479.033 150.82ZM487.273 154.12C486.745 154.12 486.281 154.016 485.881 153.808C485.489 153.592 485.185 153.296 484.969 152.92C484.753 152.544 484.645 152.104 484.645 151.6H485.725C485.725 152.088 485.861 152.472 486.133 152.752C486.413 153.024 486.797 153.16 487.285 153.16C487.781 153.16 488.165 153.016 488.437 152.728C488.709 152.44 488.845 152.064 488.845 151.6V150.976C488.845 150.48 488.709 150.096 488.437 149.824C488.165 149.552 487.781 149.416 487.285 149.416H486.385V148.336L488.557 146.224H485.005V145.24H489.649V146.32L487.309 148.588V148.456C488.109 148.456 488.745 148.684 489.217 149.14C489.689 149.596 489.925 150.208 489.925 150.976V151.6C489.925 152.104 489.813 152.544 489.589 152.92C489.373 153.296 489.065 153.592 488.665 153.808C488.265 154.016 487.801 154.12 487.273 154.12Z" fill="white"/>
<path d="M244.996 365L245.44 362.6H244.42V361.82H245.584L246.016 359.42H244.84V358.64H246.16L246.604 356.24H247.444L247 358.64H248.92L249.364 356.24H250.204L249.76 358.64H250.78V359.42H249.616L249.184 361.82H250.36V362.6H249.04L248.596 365H247.756L248.2 362.6H246.28L245.836 365H244.996ZM246.424 361.82H248.344L248.776 359.42H246.856L246.424 361.82ZM252.275 365V364.016H254.651V357.14L252.275 358.916V357.716L254.255 356.24H255.731V364.016H257.675V365H252.275Z" fill="white"/>
<path d="M314.301 365L314.745 362.6H313.725V361.82H314.889L315.321 359.42H314.145V358.64H315.465L315.909 356.24H316.749L316.305 358.64H318.225L318.669 356.24H319.509L319.065 358.64H320.085V359.42H318.921L318.489 361.82H319.665V362.6H318.345L317.901 365H317.061L317.505 362.6H315.585L315.141 365H314.301ZM315.729 361.82H317.649L318.081 359.42H316.161L315.729 361.82ZM321.604 365V363.896L324.28 361.052C324.736 360.564 325.068 360.132 325.276 359.756C325.484 359.372 325.588 359.004 325.588 358.652C325.588 358.164 325.452 357.78 325.18 357.5C324.916 357.22 324.552 357.08 324.088 357.08C323.576 357.08 323.172 357.224 322.876 357.512C322.588 357.8 322.444 358.196 322.444 358.7H321.364C321.38 358.172 321.5 357.716 321.724 357.332C321.956 356.94 322.272 356.64 322.672 356.432C323.08 356.224 323.552 356.12 324.088 356.12C324.616 356.12 325.072 356.224 325.456 356.432C325.848 356.632 326.148 356.92 326.356 357.296C326.564 357.672 326.668 358.12 326.668 358.64C326.668 359.136 326.536 359.628 326.272 360.116C326.008 360.604 325.576 361.16 324.976 361.784L322.816 364.016H326.812V365H321.604Z" fill="white"/>
<path d="M382.605 365L383.049 362.6H382.029V361.82H383.193L383.625 359.42H382.449V358.64H383.769L384.213 356.24H385.053L384.609 358.64H386.529L386.973 356.24H387.813L387.369 358.64H388.389V359.42H387.225L386.793 361.82H387.969V362.6H386.649L386.205 365H385.365L385.809 362.6H383.889L383.445 365H382.605ZM384.033 361.82H385.953L386.385 359.42H384.465L384.033 361.82ZM392.273 365.12C391.745 365.12 391.281 365.016 390.881 364.808C390.489 364.592 390.185 364.296 389.969 363.92C389.753 363.544 389.645 363.104 389.645 362.6H390.725C390.725 363.088 390.861 363.472 391.133 363.752C391.413 364.024 391.797 364.16 392.285 364.16C392.781 364.16 393.165 364.016 393.437 363.728C393.709 363.44 393.845 363.064 393.845 362.6V361.976C393.845 361.48 393.709 361.096 393.437 360.824C393.165 360.552 392.781 360.416 392.285 360.416H391.385V359.336L393.557 357.224H390.005V356.24H394.649V357.32L392.309 359.588V359.456C393.109 359.456 393.745 359.684 394.217 360.14C394.689 360.596 394.925 361.208 394.925 361.976V362.6C394.925 363.104 394.813 363.544 394.589 363.92C394.373 364.296 394.065 364.592 393.665 364.808C393.265 365.016 392.801 365.12 392.273 365.12Z" fill="white"/>
<line x1="188.934" y1="181.646" x2="201.934" y2="168.646" stroke="white"/>
<line x1="188.646" y1="198.931" x2="212.646" y2="174.931" stroke="white"/>
<line x1="188.932" y1="215.646" x2="220.932" y2="183.646" stroke="white"/>
<line x1="188.932" y1="232.646" x2="226.932" y2="194.646" stroke="white"/>
<line x1="192.932" y1="245.646" x2="227.932" y2="210.646" stroke="white"/>
<line x1="339.934" y1="221.646" x2="352.934" y2="208.646" stroke="white"/>
<line x1="339.646" y1="238.931" x2="363.646" y2="214.931" stroke="white"/>
<line x1="339.932" y1="255.646" x2="371.932" y2="223.646" stroke="white"/>
<line x1="339.932" y1="272.646" x2="377.932" y2="234.646" stroke="white"/>
<line x1="343.932" y1="285.646" x2="378.932" y2="250.646" stroke="white"/>
<line x1="260.934" y1="200.646" x2="294.934" y2="166.646" stroke="white"/>
<line x1="261.646" y1="216.931" x2="300.646" y2="177.931" stroke="white"/>
<line x1="266.932" y1="228.646" x2="300.932" y2="194.646" stroke="white"/>
<line x1="275.932" y1="236.646" x2="299.932" y2="212.646" stroke="white"/>
<line x1="286.932" y1="242.646" x2="300.932" y2="228.646" stroke="white"/>
<line x1="411.646" y1="200.646" x2="445.646" y2="166.646" stroke="white"/>
<line x1="412.359" y1="216.931" x2="451.359" y2="177.931" stroke="white"/>
<line x1="417.644" y1="228.646" x2="451.645" y2="194.646" stroke="white"/>
<line x1="426.644" y1="236.646" x2="450.645" y2="212.646" stroke="white"/>
<line x1="437.644" y1="242.646" x2="451.645" y2="228.646" stroke="white"/>
<line x1="310.646" y1="167.646" x2="311.646" y2="166.646" stroke="white"/>
<line x1="322.359" y1="172.931" x2="328.359" y2="166.931" stroke="white"/>
<line x1="330.644" y1="181.646" x2="339.645" y2="172.646" stroke="white"/>
<line x1="336.644" y1="192.646" x2="339.645" y2="189.646" stroke="white"/>
<line x1="461.646" y1="167.646" x2="462.646" y2="166.646" stroke="white"/>
<line x1="473.359" y1="172.931" x2="479.359" y2="166.931" stroke="white"/>
<line x1="481.644" y1="181.646" x2="490.645" y2="172.646" stroke="white"/>
<line x1="487.644" y1="192.646" x2="490.645" y2="189.646" stroke="white"/>
</g>
<defs>
<clipPath id="clip0_1172_2">
<rect width="640" height="640" fill="white"/>
</clipPath>
</defs>
</svg>
