<svg width="100" height="130" viewBox="0 0 100 130" fill="none" xmlns="http://www.w3.org/2000/svg">
<path d="M99.9997 0C99.9997 8.53591 98.3273 16.9882 95.078 24.8744C91.8288 32.7606 87.0663 39.9261 81.0624 45.9619C75.0586 51.9977 67.9309 56.7856 60.0865 60.0521C52.2421 63.3187 43.8345 64.9999 35.3438 64.9999V45.1984C35.3438 38.1853 41.2409 32.7221 47.7152 30.0261C51.6374 28.3928 55.2012 25.9989 58.2031 22.9809C61.205 19.963 63.5863 16.3803 65.2109 12.4372C66.8356 8.49413 67.6717 4.26796 67.6717 0H99.9997Z" fill="white"/>
<path d="M99.6559 130C99.6559 121.464 97.9835 113.012 94.7342 105.126C91.485 97.2394 86.7225 90.0739 80.7186 84.0381C74.7147 78.0023 67.5871 73.2144 59.7427 69.9479C51.8983 66.6813 43.4907 65.0001 35 65.0001V84.8016C35 91.8147 40.8971 97.2779 47.3714 99.9739C51.2936 101.607 54.8574 104.001 57.8593 107.019C60.8612 110.037 63.2425 113.62 64.8671 117.563C66.4918 121.506 67.3279 125.732 67.3279 130H99.6559Z" fill="white"/>
<path d="M0 100.345C0 80.8246 15.8246 65 35.3452 65V130H0V100.345Z" fill="white"/>
</svg>
