<svg width="16" height="16" viewBox="0 0 16 16" fill="none" xmlns="http://www.w3.org/2000/svg">
<g clip-path="url(#clip0_1158_2)">
<path fill-rule="evenodd" clip-rule="evenodd" d="M8 16C12.4183 16 16 12.4183 16 8C16 3.58172 12.4183 0 8 0C3.58172 0 0 3.58172 0 8C0 12.4183 3.58172 16 8 16ZM11 4C11 4.52529 10.8997 5.04543 10.7047 5.53073C10.5097 6.01603 10.224 6.45699 9.86376 6.82842C9.50353 7.19986 9.07587 7.4945 8.6052 7.69552C8.13454 7.89653 7.63008 8 7.12064 8V6.78144C7.12064 6.34986 7.47446 6.01367 7.86292 5.84776C8.09825 5.74725 8.31208 5.59993 8.4922 5.41421C8.67231 5.2285 8.81519 5.00802 8.91267 4.76537C9.01015 4.52272 9.06032 4.26264 9.06032 4H11ZM7.12064 8L7.12072 8V8.00006C7.62312 8.00283 8.12029 8.10619 8.58458 8.30448C9.05524 8.5055 9.4829 8.80014 9.84313 9.17158C10.2034 9.54301 10.4891 9.98397 10.6841 10.4693C10.879 10.9546 10.9794 11.4747 10.9794 12H9.03969C9.03969 11.7374 8.98952 11.4773 8.89204 11.2346C8.79456 10.992 8.65168 10.7715 8.47157 10.5858C8.29145 10.4001 8.07762 10.2528 7.84229 10.1522C7.5093 10.01 7.20176 9.74268 7.12072 9.39738V12H5V10.1751C5 8.98091 5.9383 8.0115 7.10001 8.0001V8L7.11071 8.00002L7.12064 8Z" fill="#FFE071"/>
</g>
<defs>
<clipPath id="clip0_1158_2">
<rect width="16" height="16" fill="white"/>
</clipPath>
</defs>
</svg>
